<svg fill="none" xmlns="http://www.w3.org/2000/svg" viewBox="0 0 35 26"><path d="M20.012 25.078l-.69-1.085c.46-1.775 1.002-3.666 1.627-5.671a167.538 167.538 0 012.12-6.066c.757-2.039 1.562-4.06 2.417-6.066A278.597 278.597 0 0128 .37h6.756a366.132 366.132 0 00-1.48 6.264c-.46 2.17-.903 4.34-1.33 6.51a292.162 292.162 0 00-1.184 6.263 223.757 223.757 0 00-.937 5.671h-9.814zm-18.987 0l-.69-1.085c.46-1.775 1.002-3.666 1.627-5.671a167.289 167.289 0 012.12-6.066C4.84 10.217 5.645 8.196 6.5 6.19A278.498 278.498 0 019.014.37h6.757a365.189 365.189 0 00-1.48 6.264c-.46 2.17-.904 4.34-1.332 6.51a292.162 292.162 0 00-1.183 6.263 223.757 223.757 0 00-.937 5.671H1.025z" fill="#fff"/></svg>