<svg fill="none" xmlns="http://www.w3.org/2000/svg" viewBox="0 0 20 16"><path d="M20 1.894a8.265 8.265 0 01-2.357.636A4.059 4.059 0 0019.448.295c-.793.463-1.671.8-2.606.98A4.128 4.128 0 0013.847 0C11.58 0 9.744 1.808 9.744 4.04c0 .316.036.624.106.92A11.712 11.712 0 011.393.74a3.97 3.97 0 00-.556 2.03c0 1.402.724 2.638 1.825 3.362a4.14 4.14 0 01-1.858-.505v.051c0 1.957 1.414 3.589 3.291 3.96a4.187 4.187 0 01-1.853.07 4.1 4.1 0 003.833 2.805 8.315 8.315 0 01-5.096 1.729c-.331 0-.658-.02-.979-.057A11.744 11.744 0 006.29 16c7.548 0 11.674-6.155 11.674-11.493 0-.175-.003-.35-.011-.523A8.24 8.24 0 0020 1.894z" fill="#1CB7EB"/></svg>