<svg fill="none" xmlns="http://www.w3.org/2000/svg" viewBox="0 0 26 16"><path fill-rule="evenodd" clip-rule="evenodd" d="M13.883 15.992c.866 0 .866-1.28.866-1.777 0-.889.865-1.777 1.73-1.777.866 0 2.35 1.524 3.463 2.665.865.889.865.889 1.73.889h2.597S26 15.924 26 14.215c0-.555-.593-1.497-2.596-3.554-1.731-1.777-2.62-.859 0-4.442 1.595-2.182 2.755-4.159 2.556-4.73-.19-.544-4.627-1.41-5.153-.6-1.73 2.665-2.048 3.318-2.596 4.442-.866 1.776-.951 2.665-1.731 2.665-.787 0-.866-1.725-.866-2.665 0-2.938.415-5.015-.865-5.331h-2.597C10.76 0 9.556.888 9.556.888s-1.074.86-.866.889c.258.035 1.731-.368 1.731.888v1.777s.008 3.554-.865 3.554c-.866 0-2.597-3.554-4.328-6.22C4.55.732 4.363.889 3.498.889 2.57.888 1.768.926.9.926c-.865 0-.976.566-.865.85C1.766 6.22 3.01 9.01 6.299 12.524c3.016 3.224 5.031 3.396 6.719 3.469.432.018 0 0 .865 0z" fill="#54769B"/></svg>